# xmcd
# Copyright (C) 1995-1998 Ti Kan
#
# Track frame offsets:
#       150
#       97235
#       164098
#       230013
#
# Disc length: 3650 seconds
#
# Revision: 0
# Processed by: cddbd v1.5.2PL0 Copyright (c) Steve Scherf et al.
# Submitted via: CD-Transfer v1.0
#
DISCID=350e4004
DTITLE=Michael Friedel - 
DYEAR=1900
DGENRE=
TTITLE0=Hitclub 22.08.10 - 001
TTITLE1=Hitclub 22.08.10 - 002
TTITLE2=Hitclub 22.08.10 - 003
TTITLE3=Hitclub 22.08.10 - 004
EXTD=
EXTT0=
EXTT1=
EXTT2=
EXTT3=
PLAYORDER=
